<!-- Generated by IcoMoon.io -->
<svg version="1.1" xmlns="http://www.w3.org/2000/svg" width="32" height="32" viewBox="0 0 32 32">
<title>award1</title>
<path d="M15.626 20.992l-4.025 10.485-1.726-3.876-3.876 1.726 3.978-10.363c1.581 1.202 3.53 1.945 5.648 2.028v0zM22.074 18.964l3.978 10.363-3.876-1.726-1.726 3.876-4.025-10.485c2.119-0.083 4.068-0.826 5.648-2.028v0 0zM16.026 20v0c-4.971 0-9-4.029-9-9s4.029-9 9-9c4.971 0 9 4.029 9 9s-4.029 9-9 9zM16.026 17c3.314 0 6-2.686 6-6s-2.686-6-6-6c-3.314 0-6 2.686-6 6s2.686 6 6 6v0zM16.026 16c2.761 0 5-2.239 5-5s-2.239-5-5-5c-2.761 0-5 2.239-5 5s2.239 5 5 5v0z"></path>
</svg>
