<!-- Generated by IcoMoon.io -->
<svg version="1.1" xmlns="http://www.w3.org/2000/svg" width="32" height="32" viewBox="0 0 32 32">
<title>documents</title>
<path d="M6.997 5.002l0.003-0.002c0 0 0 0-0 0s0 0 0 0c0.004-1.106 0.897-2 1.997-2 0.007-1.106 0.902-2 2.005-2h10.997l6 7v18.009c0 1.093-0.894 1.991-1.997 1.991-0.007 1.106-0.899 2-2 2-0.007 1.106-0.899 2-2 2h-15.005c-1.107 0-1.997-0.899-1.997-2.007v-22.985c0-1.109 0.894-2.007 1.997-2.007v0.002zM7 6c-0.552 0-1 0.455-1 0.995v23.009c0 0.55 0.455 0.995 1 0.995h15c0.552 0 1-0.455 1-0.995l-14.003-0.005c-1.107 0-1.997-0.899-1.997-2.007v-21.993c0 0 0 0-0-0v0zM9 4c-0.552 0-1 0.455-1 0.995v23.009c0 0.55 0.455 0.995 1 0.995h15c0.552 0 1-0.455 1-0.995v-0.005h-14.003c-1.107 0-1.997-0.899-1.997-2.007v-21.993h-0zM21 2h-10.004c-0.55 0-0.996 0.455-0.996 0.995v23.009c0 0.55 0.455 0.995 1 0.995h15c0.552 0 1-0.445 1-0.993v-17.007h-4.002c-1.103 0-1.998-0.887-1.998-2.006v-4.994zM22 2.5v4.491c0 0.557 0.451 1.009 0.997 1.009h3.703l-4.7-5.5z"></path>
</svg>
