<!-- Generated by IcoMoon.io -->
<svg version="1.1" xmlns="http://www.w3.org/2000/svg" width="32" height="32" viewBox="0 0 32 32">
<title>hockey-stick1</title>
<path d="M22.516 12.878l-6.072 12.225c-0.241 0.484-0.891 0.894-1.441 0.894h-6.006c-0.544 0-0.997-0.447-0.997-1v-1.003c0-0.556 0.444-1 0.991-1h5.009l5.775-11.516 2.741 1.4zM22.959 11.984l1.488-2.994c0.272-0.55 0.056-1.216-0.491-1.491l-0.759-0.381c-0.544-0.275-1.206-0.059-1.475 0.478l-1.5 2.991 2.738 1.397zM11.5 20.997c0.828 0 1.5-0.672 1.5-1.5s-0.672-1.5-1.5-1.5-1.5 0.672-1.5 1.5 0.672 1.5 1.5 1.5v0z"></path>
</svg>
