<!-- Generated by IcoMoon.io -->
<svg version="1.1" xmlns="http://www.w3.org/2000/svg" width="32" height="32" viewBox="0 0 32 32">
<title>hockey-sticks</title>
<path d="M18.247 17.507l2.753 5.49h5.009c0.547 0 0.991 0.443 0.991 0.999v1.002c0 0.552-0.453 0.999-0.997 0.999h-6.006c-0.551 0-1.201-0.41-1.44-0.893l-2.048-4.122 0.56-1.12 2.383 4.798c0.073 0.147 0.379 0.337 0.545 0.337h6.006c-0.005 0-0.003-1.001-0.003-1.001 0-0.004-5 0.001-5 0.001h-0.617l-2.695-5.373 0.558-1.117zM15.492 12.015l-0.559 1.117-0.7-1.396-0.958 0.488 1.053 2.119-0.56 1.12-3.216-6.474c-0.273-0.549-0.055-1.214 0.492-1.49l0.758-0.382c0.544-0.274 1.205-0.058 1.474 0.479l2.215 4.417zM13.785 10.842l-1.402-2.796c-0.021-0.041-0.079-0.060-0.131-0.034l-0.758 0.382c-0.053 0.027-0.075 0.093-0.046 0.152l1.383 2.783 0.955-0.486zM13.443 25.105c-0.24 0.483-0.89 0.893-1.44 0.893h-6.006c-0.544 0-0.997-0.447-0.997-0.999v-1.002c0-0.556 0.444-0.999 0.991-0.999h5.009l7.723-15.399c0.269-0.537 0.93-0.753 1.474-0.479l0.759 0.382c0.547 0.275 0.764 0.941 0.492 1.49l-8.004 16.114zM18.215 10.842l0.955 0.486 1.383-2.783c0.029-0.058 0.007-0.125-0.046-0.152l-0.759-0.382c-0.052-0.026-0.11-0.007-0.131 0.034l-1.402 2.796zM11.894 23.445l-0.277 0.552h-0.617c0 0-5-0.005-5-0.001 0 0 0.002 1.001-0.003 1.001h6.006c0.166 0 0.472-0.19 0.545-0.337l6.177-12.435-0.958-0.488-5.872 11.709z"></path>
</svg>
