<!-- Generated by IcoMoon.io -->
<svg version="1.1" xmlns="http://www.w3.org/2000/svg" width="32" height="32" viewBox="0 0 32 32">
<title>hockey-sticks1</title>
<path d="M19.617 12.676l-6.173 12.428c-0.24 0.483-0.89 0.893-1.44 0.893h-6.006c-0.544 0-0.997-0.447-0.997-0.999v-1.002c0-0.556 0.444-0.999 0.991-0.999h5.009l5.877-11.717 2.74 1.396zM20.062 11.781l1.386-2.79c0.273-0.549 0.055-1.214-0.492-1.49l-0.759-0.382c-0.544-0.274-1.205-0.058-1.474 0.479l-1.398 2.788 2.737 1.395zM13.75 15.498l-1.394-2.807 2.74-1.396 0.379 0.755-1.724 3.449zM16.491 21.016l2.031 4.089c0.24 0.483 0.89 0.893 1.44 0.893h6.006c0.544 0 0.997-0.447 0.997-0.999v-1.002c0-0.556-0.444-0.999-0.991-0.999h-5.009l-2.737-5.457-1.738 3.475zM11.91 11.795l-1.393-2.804c-0.273-0.549-0.055-1.214 0.492-1.49l0.758-0.382c0.544-0.274 1.205-0.058 1.474 0.479l1.405 2.802-2.737 1.395z"></path>
</svg>
