<!-- Generated by IcoMoon.io -->
<svg version="1.1" xmlns="http://www.w3.org/2000/svg" width="32" height="32" viewBox="0 0 32 32">
<title>hockey-stick</title>
<path d="M11.5 21c0.828 0 1.5-0.672 1.5-1.5s-0.672-1.5-1.5-1.5c-0.828 0-1.5 0.672-1.5 1.5s0.672 1.5 1.5 1.5v0 0zM16.443 25.105c-0.24 0.483-0.89 0.893-1.44 0.893h-6.006c-0.544 0-0.997-0.447-0.997-0.999v-1.002c0-0.556 0.444-0.999 0.991-0.999h5.009l7.723-15.399c0.269-0.537 0.93-0.753 1.474-0.479l0.759 0.382c0.547 0.275 0.764 0.941 0.492 1.49l-8.004 16.114zM21.215 10.842l0.955 0.486 1.383-2.783c0.029-0.058 0.007-0.125-0.046-0.152l-0.759-0.382c-0.052-0.026-0.11-0.007-0.131 0.034l-1.402 2.796zM20.766 11.736l-6.149 12.261h-0.617c0 0-5-0.005-5-0.001 0 0 0.002 1.001-0.003 1.001h6.006c0.166 0 0.472-0.19 0.545-0.337l6.177-12.435-0.958-0.488z"></path>
</svg>
