<!-- Generated by IcoMoon.io -->
<svg version="1.1" xmlns="http://www.w3.org/2000/svg" width="32" height="32" viewBox="0 0 32 32">
<title>soccer-court</title>
<path d="M3 21h4v-9h-4v-3c0-0.545 0.445-1 0.993-1h25.014c0.547 0 0.993 0.448 0.993 1v3h-4v9h4v3c0 0.545-0.445 1-0.993 1h-25.014c-0.547 0-0.993-0.448-0.993-1v-3zM17 20.973v4.027h-1v-4.027c-2.25-0.249-4-2.156-4-4.473s1.75-4.224 4-4.473v-4.027h1v4.027c2.25 0.249 4 2.156 4 4.473s-1.75 4.224-4 4.473zM17 19.965c1.696-0.243 3-1.701 3-3.465s-1.304-3.222-3-3.465v6.929zM16 13.035c-1.696 0.243-3 1.701-3 3.465s1.304 3.222 3 3.465v-6.929zM3.993 7c-1.101 0-1.993 0.891-1.993 1.997v15.005c0 1.103 0.9 1.997 1.993 1.997h25.013c1.101 0 1.993-0.891 1.993-1.997v-15.005c0-1.103-0.9-1.997-1.993-1.997h-25.013zM27 13h3v7h-3v-7zM3 13h3v7h-3v-7z"></path>
</svg>
